<svg width="35" height="35" viewBox="0 0 35 35" fill="none" xmlns="http://www.w3.org/2000/svg">
<path d="M32.0833 23.6105C32.0833 28.9188 28.9187 32.0834 23.6104 32.0834H21.875C21.0729 32.0834 20.4167 31.4272 20.4167 30.6251V22.2105C20.4167 21.8168 20.7375 21.4813 21.1312 21.4813L23.6979 21.4376C23.9021 21.423 24.0771 21.2772 24.1208 21.073L24.6313 18.2876C24.675 18.0251 24.4708 17.7772 24.1937 17.7772L21.0875 17.8209C20.6792 17.8209 20.3583 17.5001 20.3438 17.1063L20.2854 13.5334C20.2854 13.3001 20.475 13.0959 20.7229 13.0959L24.2229 13.0376C24.4708 13.0376 24.6604 12.848 24.6604 12.6001L24.6021 9.10007C24.6021 8.85215 24.4125 8.66258 24.1646 8.66258L20.2271 8.72093C17.8062 8.76468 15.8813 10.748 15.925 13.1688L15.9979 17.1792C16.0125 17.5876 15.6917 17.9084 15.2833 17.923L13.5333 17.9522C13.2854 17.9522 13.0958 18.1417 13.0958 18.3896L13.1396 21.1605C13.1396 21.4084 13.3292 21.598 13.5771 21.598L15.3271 21.5688C15.7354 21.5688 16.0562 21.8897 16.0708 22.2834L16.2021 30.5959C16.2166 31.4126 15.5604 32.0834 14.7437 32.0834H11.3896C6.08124 32.0834 2.91666 28.9188 2.91666 23.5959V11.3897C2.91666 6.08133 6.08124 2.91675 11.3896 2.91675H23.6104C28.9187 2.91675 32.0833 6.08133 32.0833 11.3897V23.6105Z" fill="#3E2959"/>
</svg>
