<svg width="35" height="35" viewBox="0 0 35 35" fill="none" xmlns="http://www.w3.org/2000/svg">
<path d="M23.6104 2.91675H11.3896C6.08125 2.91675 2.91666 6.08133 2.91666 11.3897V23.5959C2.91666 28.9188 6.08125 32.0834 11.3896 32.0834H23.5958C28.9042 32.0834 32.0687 28.9188 32.0687 23.6105V11.3897C32.0833 6.08133 28.9187 2.91675 23.6104 2.91675ZM17.5 23.1584C14.3792 23.1584 11.8417 20.6209 11.8417 17.5001C11.8417 14.3792 14.3792 11.8417 17.5 11.8417C20.6208 11.8417 23.1583 14.3792 23.1583 17.5001C23.1583 20.6209 20.6208 23.1584 17.5 23.1584ZM26.1333 10.0334C26.0604 10.2084 25.9583 10.3688 25.8271 10.5147C25.6812 10.6459 25.5208 10.748 25.3458 10.8209C25.1708 10.8938 24.9812 10.9376 24.7917 10.9376C24.3979 10.9376 24.0333 10.7917 23.7562 10.5147C23.625 10.3688 23.5229 10.2084 23.45 10.0334C23.3771 9.85841 23.3333 9.66883 23.3333 9.47925C23.3333 9.28966 23.3771 9.10008 23.45 8.92508C23.5229 8.7355 23.625 8.58966 23.7562 8.44383C24.0917 8.10841 24.6021 7.948 25.0687 8.05008C25.1708 8.06466 25.2583 8.09383 25.3458 8.13758C25.4333 8.16675 25.5208 8.2105 25.6083 8.26883C25.6812 8.31258 25.7542 8.3855 25.8271 8.44383C25.9583 8.58966 26.0604 8.7355 26.1333 8.92508C26.2062 9.10008 26.25 9.28966 26.25 9.47925C26.25 9.66883 26.2062 9.85841 26.1333 10.0334Z" fill="#3E2959"/>
</svg>
