<svg width="35" height="35" viewBox="0 0 35 35" fill="none" xmlns="http://www.w3.org/2000/svg">
<path d="M23.5375 4.31661L10.3688 8.69161C1.51667 11.652 1.51667 16.4791 10.3688 19.4249L14.2771 20.7229L15.575 24.6312C18.5208 33.4833 23.3625 33.4833 26.3083 24.6312L30.6979 11.477C32.6521 5.57077 29.4438 2.34786 23.5375 4.31661ZM24.0042 12.1624L18.4625 17.7333C18.2438 17.952 17.9667 18.0541 17.6896 18.0541C17.4125 18.0541 17.1354 17.952 16.9167 17.7333C16.4938 17.3104 16.4938 16.6104 16.9167 16.1874L22.4583 10.6166C22.8813 10.1937 23.5813 10.1937 24.0042 10.6166C24.4271 11.0395 24.4271 11.7395 24.0042 12.1624Z" fill="#3E2959"/>
</svg>
