<svg width="35" height="35" viewBox="0 0 35 35" fill="none" xmlns="http://www.w3.org/2000/svg">
<path d="M7.9625 2.91675H5.9062C4.54995 2.91675 3.86454 4.56466 4.82704 5.52716L13.1833 13.8834C15.5749 16.2751 19.4395 16.2751 21.8312 13.8834L30.1875 5.52716C31.15 4.56466 30.4646 2.91675 29.1083 2.91675H27.052C25.8416 2.91675 24.675 3.398 23.8146 4.25841L18.5937 9.47925C17.9958 10.0772 17.0333 10.0772 16.4354 9.47925L11.2146 4.25841C10.3396 3.398 9.17291 2.91675 7.9625 2.91675Z" fill="#3E2959"/>
<path d="M7.9625 32.0395H5.9062C4.54995 32.0395 3.86454 30.3916 4.82704 29.4291L13.1833 21.0728C15.5749 18.6811 19.4395 18.6811 21.8312 21.0728L30.1875 29.4291C31.15 30.3916 30.4646 32.0395 29.1083 32.0395H27.052C25.8416 32.0395 24.675 31.5582 23.8146 30.6978L18.5937 25.477C17.9958 24.8791 17.0333 24.8791 16.4354 25.477L11.2146 30.6978C10.3396 31.5582 9.17291 32.0395 7.9625 32.0395Z" fill="#3E2959"/>
</svg>
